# xmcd
#
# Track frame offsets:
#	150
#	15231
#	34360
#	48807
#	63929
#	77053
#	97031
#	113332
#	129364
#	142704
#	153514
#
# Disc length: 2357 seconds
#
# Revision: 1
# Processed by: cddbd v1.5PL3 Copyright (c) Steve Scherf et al.
# Submitted via: EasyCDDAExtractor 5.0.7
#
DISCID=7909330b
DTITLE=Ronny Corbin - New Way To Fly
DYEAR=2004
DGENRE=Texas Music
TTITLE0=Chasin' Rainbows
TTITLE1=I'd Do It Again
TTITLE2=Come To The Islands
TTITLE3=New Way To Fly
TTITLE4=Here's A Toast
TTITLE5=Land Of Manana
TTITLE6=The Simple Life
TTITLE7=Home Is Where The Heart Is
TTITLE8=That's Why I Fell In Love With You
TTITLE9=Texas Nites
TTITLE10=Ride This Hurricane
EXTD=
EXTT0=
EXTT1=
EXTT2=
EXTT3=
EXTT4=
EXTT5=
EXTT6=
EXTT7=
EXTT8=
EXTT9=
EXTT10=
PLAYORDER=
